<svg xmlns="http://www.w3.org/2000/svg" width="31.514" height="31.514" viewBox="0 0 31.514 31.514"><path d="M31.091,1.175a1.063,1.063,0,0,0-.751-.75A22.325,22.325,0,0,0,25.261,0C18.907,0,15.1,3.4,12.252,7.879H5.837A3.237,3.237,0,0,0,3.2,9.509L.155,15.591A1.748,1.748,0,0,0,0,16.249a1.478,1.478,0,0,0,1.478,1.477h6.39L6.484,19.11a2,2,0,0,0,0,2.785l3.133,3.133a2.007,2.007,0,0,0,2.787,0l1.383-1.383v6.392a1.478,1.478,0,0,0,1.478,1.477,1.758,1.758,0,0,0,.659-.155L22,28.319a3.226,3.226,0,0,0,1.632-2.638V19.253C28.1,16.4,31.513,12.58,31.513,6.26A21.849,21.849,0,0,0,31.091,1.175Zm-7.453,9.165A2.462,2.462,0,1,1,26.1,7.878a2.462,2.462,0,0,1-2.463,2.462Z" fill="#fff"/></svg>