<svg xmlns="http://www.w3.org/2000/svg" width="77.435" height="49.731" viewBox="0 0 77.435 49.731"><g transform="translate(-107 46)"><ellipse cx="24.618" cy="24.842" rx="24.618" ry="24.842" transform="translate(121.323 -45.952)" fill="#ff4284"/><path d="M38.717,18.352c-5.227,0-10.3-.243-15.071-.721-2.294-.23-4.507-.515-6.577-.846-2.05-.328-3.978-.705-5.73-1.12a47.568,47.568,0,0,1-4.728-1.358,22.914,22.914,0,0,1-3.57-1.559A8.4,8.4,0,0,1,.787,11.025,2.841,2.841,0,0,1,0,9.176,2.841,2.841,0,0,1,.787,7.327,8.4,8.4,0,0,1,3.043,5.6a22.914,22.914,0,0,1,3.57-1.559A47.568,47.568,0,0,1,11.34,2.688c1.752-.415,3.68-.792,5.73-1.12,2.07-.331,4.282-.616,6.577-.846C28.42.243,33.49,0,38.717,0s10.3.243,15.071.721c2.294.23,4.507.515,6.577.846,2.05.328,3.978.705,5.73,1.12a47.566,47.566,0,0,1,4.728,1.358A22.914,22.914,0,0,1,74.392,5.6a8.4,8.4,0,0,1,2.256,1.722,2.841,2.841,0,0,1,.787,1.849,2.841,2.841,0,0,1-.787,1.849,8.4,8.4,0,0,1-2.256,1.722,22.914,22.914,0,0,1-3.57,1.559,47.567,47.567,0,0,1-4.728,1.358c-1.752.415-3.68.792-5.73,1.12-2.07.331-4.282.616-6.577.846C49.015,18.109,43.944,18.352,38.717,18.352Zm.06-15.9A151.222,151.222,0,0,0,12.724,4.436a37.88,37.88,0,0,0-7.9,2.158A8.076,8.076,0,0,0,2.681,7.869a1.9,1.9,0,0,0-.749,1.368,1.9,1.9,0,0,0,.749,1.368A8.076,8.076,0,0,0,4.828,11.88a37.88,37.88,0,0,0,7.9,2.158,151.224,151.224,0,0,0,26.053,1.989,151.224,151.224,0,0,0,26.053-1.989,37.881,37.881,0,0,0,7.9-2.158,8.076,8.076,0,0,0,2.147-1.275,1.9,1.9,0,0,0,.749-1.368,1.9,1.9,0,0,0-.749-1.368,8.076,8.076,0,0,0-2.147-1.275,37.88,37.88,0,0,0-7.9-2.158A151.222,151.222,0,0,0,38.778,2.447Z" transform="translate(107 -28.048)" fill="#1de9b6"/><path d="M24.566,0A24.732,24.732,0,0,1,49.133,24.894c0,13.749-23.859,5.263-23.859,5.263S0,38.642,0,24.894A24.732,24.732,0,0,1,24.566,0Z" transform="translate(121.412 -46)" fill="#ff4284"/></g></svg>