<svg width="208" height="1140" viewBox="0 0 208 1140" fill="none" xmlns="http://www.w3.org/2000/svg">
<path d="M0 417.195C0 417.195 23.674 423.795 31.823 412.926C39.972 402.057 67.543 376.878 102.067 388.476C138.547 377.61 106.336 379.162 106.336 379.162L58.213 293.006L31.823 303.484L0 417.195Z" fill="#5E35B1"/>
<path d="M207.989 417.195C207.989 417.195 184.316 423.795 176.166 412.926C168.016 402.057 140.446 376.878 105.922 388.476C69.442 377.61 101.653 379.162 101.653 379.162L149.776 293.006L176.166 303.484L207.989 417.195Z" fill="#5E35B1"/>
<path d="M86.7591 383.021C86.7591 383.021 75.1191 409.643 73.9781 452.212C72.8371 494.781 107.283 571.163 107.283 571.163C107.283 571.163 140.493 490.601 140.873 457.153C141.253 423.705 125.527 383.021 125.527 383.021L86.7591 383.021Z" fill="#00827E"/>
<path d="M86.292 378.567C86.292 378.567 93.714 367.997 88.316 381.491C88.498 383.977 81.233 424.034 82.223 460.522C83.213 497.01 106.782 535.1 106.782 535.1C106.782 535.1 127.633 501.783 131.634 462.3C135.635 422.817 120.287 366.873 120.287 366.873L86.292 378.567Z" fill="#1DE9C0"/>
<path d="M98.663 382.889C98.663 382.889 91.563 399.536 93.363 415.344C95.163 431.152 107.94 456.371 107.94 456.371C107.94 456.371 118.88 428.547 120.729 415.344C122.578 402.141 117.554 381.944 117.554 381.944L98.663 382.889Z" fill="#F2FFFC"/>
<path d="M181.29 181.521C181.29 202.725 178.445 226.575 172.835 252.408C168.341 273.101 162.074 295.1 154.207 317.796C147.205 337.996 140.208 355.015 135.57 365.736C131.39 375.399 128.332 381.806 127.405 383.72C124.347 384.564 111.199 388.094 105.412 388.094C99.032 388.094 87.9738 384.631 85.2935 383.76C84.3893 381.854 81.3076 375.274 77.0917 365.37C72.4539 354.475 65.4558 337.214 58.4549 316.857C50.5905 293.99 44.3253 271.955 39.8333 251.367C34.2262 225.667 31.3832 202.168 31.3832 181.521C31.3832 167.899 32.4687 154.255 34.6095 140.967C36.5556 128.887 39.4172 116.83 43.1149 105.131C49.3433 85.4237 58.0285 66.3526 68.9291 48.4474C73.2115 41.4132 77.8501 34.5445 82.7161 28.0324C86.6076 22.8244 90.6519 17.8321 94.7367 13.1941C99.8259 7.41564 103.702 3.64281 105.425 2.02615C107.193 3.64577 111.204 7.45602 116.457 13.2829C120.644 17.9275 124.788 22.9257 128.775 28.1388C133.757 34.6531 138.506 41.5231 142.889 48.5581C154.041 66.4556 162.925 85.5163 169.295 105.211C173.076 116.9 176.002 128.945 177.992 141.013C180.181 154.286 181.29 167.915 181.29 181.521Z" fill="#B388FF"/>
<path d="M32.8832 181.521C32.8832 202.055 35.713 225.439 41.294 251.025C45.7715 271.552 52.0182 293.524 59.8605 316.332C66.8457 336.647 73.8291 353.874 78.4574 364.749C82.3126 373.807 85.2179 380.08 86.3722 382.532C87.7074 382.958 90.0398 383.675 92.735 384.389C98.1797 385.832 102.564 386.594 105.412 386.594C110.219 386.594 121.154 383.877 126.349 382.457C127.522 380.013 130.391 373.932 134.194 365.14C138.821 354.443 145.803 337.461 152.789 317.305C160.637 294.665 166.888 272.724 171.369 252.09C176.957 226.361 179.79 202.618 179.79 181.521C179.79 168.01 178.689 154.477 176.519 141.297C174.545 129.313 171.642 117.351 167.891 105.742C161.568 86.1752 152.748 67.2352 141.676 49.4481C137.322 42.4528 132.604 35.621 127.654 29.1425C123.692 23.9564 119.572 18.9837 115.411 14.3625C111.013 9.47954 107.49 6.01918 105.437 4.08528C103.455 5.99821 100.086 9.39018 95.8624 14.1855C91.804 18.7935 87.7853 23.7543 83.9177 28.9302C79.08 35.4046 74.4682 42.2335 70.2103 49.2274C59.3723 67.0298 50.7373 85.9905 44.5452 105.583C40.8695 117.213 38.0249 129.198 36.0904 141.206C33.9622 154.415 32.8832 167.979 32.8832 181.521ZM29.8832 181.521C29.8832 66.6059 105.412 -1.52588e-05 105.412 -1.52588e-05C105.412 -1.52588e-05 182.79 66.6059 182.79 181.521C182.79 274.948 128.458 384.984 128.458 384.984C128.458 384.984 112.239 389.594 105.412 389.594C97.8197 389.594 84.2156 384.984 84.2156 384.984C84.2156 384.984 29.8832 272.534 29.8832 181.521Z" fill="#5E35B1"/>
<path opacity="0.52" d="M30.807 181.934C30.807 67.0223 106.337 0.412346 106.337 0.412346L106.443 388.195L85.143 385.395C85.143 385.395 30.807 272.947 30.807 181.934Z" fill="#673AB7"/>
<path d="M141.871 154.656C141.871 159.433 140.936 164.065 139.092 168.424C137.311 172.636 134.76 176.419 131.51 179.669C128.261 182.918 124.478 185.469 120.266 187.251C115.907 189.094 111.274 190.029 106.498 190.029C101.722 190.029 97.0893 189.094 92.73 187.251C88.5181 185.469 84.7349 182.918 81.4855 179.669C78.2361 176.419 75.6852 172.636 73.9038 168.424C72.0599 164.065 71.125 159.433 71.125 154.656C71.125 149.88 72.0599 145.248 73.9038 140.888C75.6852 136.677 78.2361 132.893 81.4855 129.644C84.7349 126.395 88.5181 123.844 92.73 122.062C97.0893 120.218 101.722 119.283 106.498 119.283C111.274 119.283 115.907 120.218 120.266 122.062C124.478 123.844 128.261 126.395 131.51 129.644C134.76 132.893 137.311 136.677 139.092 140.888C140.936 145.248 141.871 149.88 141.871 154.656Z" fill="#85E9D5"/>
<path d="M73.625 154.656C73.625 159.096 74.4935 163.401 76.2063 167.45C77.8617 171.364 80.2326 174.88 83.2533 177.901C86.2739 180.922 89.7899 183.293 93.7038 184.948C97.7533 186.661 102.058 187.529 106.498 187.529C110.938 187.529 115.242 186.661 119.292 184.948C123.206 183.293 126.722 180.922 129.743 177.901C132.763 174.88 135.134 171.364 136.79 167.45C138.502 163.401 139.371 159.096 139.371 154.656C139.371 150.216 138.502 145.912 136.79 141.862C135.134 137.948 132.763 134.432 129.743 131.412C126.722 128.391 123.206 126.02 119.292 124.365C115.242 122.652 110.938 121.783 106.498 121.783C102.058 121.783 97.7533 122.652 93.7038 124.365C89.7899 126.02 86.2739 128.391 83.2533 131.412C80.2326 134.432 77.8617 137.948 76.2063 141.862C74.4935 145.912 73.625 150.216 73.625 154.656ZM68.625 154.656C68.625 133.74 85.5813 116.783 106.498 116.783C127.415 116.783 144.371 133.74 144.371 154.656C144.371 175.573 127.415 192.529 106.498 192.529C85.5813 192.529 68.625 175.573 68.625 154.656Z" fill="#5E35B1"/>
<path d="M85.494 216.293L127.502 216.293" stroke="#8A65C2" stroke-width="5" stroke-linecap="round"/>
<path d="M85.494 216.293L127.502 216.293" stroke="#5E35B1" stroke-width="5" stroke-linecap="round"/>
<path d="M85.494 259.194L127.502 259.194" stroke="#5E35B1" stroke-width="5" stroke-linecap="round"/>
<path d="M85.494 237.743L127.502 237.743" stroke="#8A65C2" stroke-width="5" stroke-linecap="round"/>
<path d="M85.494 237.743L127.502 237.743" stroke="#5E35B1" stroke-width="5" stroke-linecap="round"/>
<path d="M85.494 280.645L127.502 280.645" stroke="#5E35B1" stroke-width="5" stroke-linecap="round"/>
<path d="M118.449 142.556C118.449 141.319 118.816 140.109 119.503 139.081C120.191 138.052 121.168 137.25 122.311 136.776C123.454 136.303 124.712 136.179 125.925 136.42C127.139 136.662 128.254 137.258 129.129 138.133C130.004 139.008 130.599 140.122 130.841 141.336C131.082 142.549 130.958 143.807 130.485 144.95C130.011 146.093 129.209 147.071 128.181 147.758C127.152 148.445 125.942 148.812 124.705 148.812C123.046 148.812 121.455 148.153 120.281 146.98C119.108 145.807 118.449 144.215 118.449 142.556V142.556Z" fill="white"/>
<path d="M53.65 448.676L53.65 984.943" stroke="white" stroke-width="5" stroke-linecap="round"/>
<path d="M168.054 425.884L168.054 962.151" stroke="white" stroke-width="5" stroke-linecap="round"/>
<path d="M139.453 537.607L139.453 1073.87" stroke="white" stroke-width="5" stroke-linecap="round"/>
<path d="M110.852 601.065L110.852 1137.33" stroke="white" stroke-width="5" stroke-linecap="round"/>
<path d="M82.251 601.065L82.251 1137.33" stroke="white" stroke-width="5" stroke-linecap="round"/>
</svg>
