<svg xmlns="http://www.w3.org/2000/svg" width="207.989" height="1139.832" viewBox="0 0 207.989 1139.832"><g transform="translate(-705.474 1408.332) rotate(-90)"><g transform="translate(837.169 705.474)"><path d="M672.565,651.493s-6.6,23.674,4.269,31.823,36.048,35.72,24.45,70.244c10.866,36.48,9.314,4.269,9.314,4.269l86.156-48.123-10.478-26.39Z" transform="translate(-518.597 -651.493)" fill="#5e35b1"/><path d="M672.565,770.959s-6.6-23.673,4.269-31.823,36.048-35.72,24.45-70.244c10.866-36.48,9.314-4.269,9.314-4.269l86.156,48.123-10.478,26.39Z" transform="translate(-518.597 -562.97)" fill="#5e35b1"/><path d="M697.677,744.19s-26.622-11.64-69.191-12.781-118.951,33.305-118.951,33.305,80.562,33.21,114.01,33.59,74.132-15.346,74.132-15.346Z" transform="translate(-509.535 -657.431)" fill="#00827e"/><path d="M637.417,735.582s10.57,7.422-2.924,2.024c-2.486.182-42.543-7.083-79.031-6.093s-74.578,24.559-74.578,24.559,33.317,20.851,72.8,24.852,95.427-11.347,95.427-11.347Z" transform="translate(-444.821 -649.29)" fill="#1de9c0"/><path d="M711.452,759.216s-16.647-7.1-32.455-5.3-41.027,14.577-41.027,14.577,27.824,10.94,41.027,12.789,33.4-3.175,33.4-3.175Z" transform="translate(-523.178 -660.553)" fill="#f2fffc"/><g transform="translate(181.569 32.646)" fill="#b388ff"><path d="M 208.0728454589844 148.6442565917969 C 186.8695526123047 148.6442565917969 163.0197448730469 145.7994995117188 137.1859436035156 140.1889953613281 C 116.4936981201172 135.6950988769531 94.49394989013672 129.4276428222656 71.7978515625 121.5607528686523 C 51.59859848022461 114.5593490600586 34.57915115356445 107.5618515014648 23.85854911804199 102.9245529174805 C 14.19499492645264 98.74453735351563 7.787906169891357 95.68563079833984 5.873864650726318 94.75902557373047 C 5.030405044555664 91.70085906982422 1.499999642372131 78.55345153808594 1.499999642372131 72.76654815673828 C 1.499999642372131 66.38610076904297 4.96299934387207 55.3278694152832 5.83410120010376 52.64759063720703 C 7.740120887756348 51.74333572387695 14.32019710540771 48.66166687011719 24.22410011291504 44.44580078125 C 35.11940002441406 39.80794906616211 52.38010025024414 32.80984878540039 72.73699951171875 25.80895042419434 C 95.60465240478516 17.94460105895996 117.6388473510742 11.67940044403076 138.2276458740234 7.187350273132324 C 163.9271545410156 1.580300092697144 187.4264526367188 -1.262749910354614 208.0728454589844 -1.262749910354614 C 221.6947937011719 -1.262749910354614 235.3392944335938 -0.1772498786449432 248.6273498535156 1.963550090789795 C 260.7068481445313 3.909650087356567 272.7638549804688 6.771300315856934 284.4635009765625 10.46895027160645 C 304.1705932617188 16.69740104675293 323.2416381835938 25.38254928588867 341.1468505859375 36.28314971923828 C 348.1810913085938 40.5655517578125 355.0497436523438 45.20420074462891 361.5618896484375 50.0702018737793 C 366.7698364257813 53.96170043945313 371.76220703125 58.00600051879883 376.400146484375 62.09075164794922 C 382.1786193847656 67.17995452880859 385.9514465332031 71.05587005615234 387.568115234375 72.77860260009766 C 385.948486328125 74.54689788818359 382.1382446289063 78.55855560302734 376.3114013671875 83.81105041503906 C 371.6668090820313 87.99784851074219 366.6685485839844 92.14219665527344 361.4555053710938 96.12905120849609 C 354.9411926269531 101.1110000610352 348.0711364746094 105.8596496582031 341.0361938476563 110.243049621582 C 323.1386413574219 121.3947982788086 304.0779418945313 130.2792510986328 284.383544921875 136.6495513916016 C 272.6947631835938 140.4304046630859 260.6492614746094 143.3562927246094 248.5816497802734 145.3460540771484 C 235.308349609375 147.5346069335938 221.67919921875 148.6442565917969 208.0728454589844 148.6442565917969 Z" stroke="none"/><path d="M 208.0728454589844 0.23724365234375 C 187.5397491455078 0.23724365234375 164.1554565429688 3.067047119140625 138.5695037841797 8.648056030273438 C 118.0424499511719 13.12559509277344 96.0699462890625 19.37225341796875 73.26235961914063 27.21455383300781 C 52.94735717773438 34.19975280761719 35.72024536132813 41.18315124511719 24.84576416015625 45.81144714355469 C 15.78775024414063 49.66664123535156 9.514129638671875 52.57195281982422 7.06219482421875 53.72628021240234 C 6.63641357421875 55.06151580810547 5.919036865234375 57.39382934570313 5.2049560546875 60.08910369873047 C 3.762451171875 65.53379821777344 3 69.9176025390625 3 72.76654815673828 C 3 77.57274627685547 5.717376708984375 88.50777435302734 7.13714599609375 93.70283508300781 C 9.5816650390625 94.87651062011719 15.66241455078125 97.74495697021484 24.45404052734375 101.5478515625 C 35.1512451171875 106.1750030517578 52.133544921875 113.1571960449219 72.28909301757813 120.1435012817383 C 94.92880249023438 127.990852355957 116.870361328125 134.241943359375 137.5043029785156 138.72314453125 C 163.2337036132813 144.3110046386719 186.9763946533203 147.1442565917969 208.0728454589844 147.1442565917969 C 221.5841064453125 147.1442565917969 235.1177062988281 146.0435028076172 248.2976989746094 143.8726043701172 C 260.2814331054688 141.8987426757813 272.2437133789063 138.9959564208984 283.8521118164063 135.2449493408203 C 303.4190979003906 128.9222564697266 322.359130859375 120.1023483276367 340.1462097167969 109.0302505493164 C 347.1414489746094 104.6757965087891 353.9732666015625 99.95809936523438 360.4518127441406 95.00825500488281 C 365.6379089355469 91.04579925537109 370.610595703125 86.92655181884766 375.2317504882813 82.76480102539063 C 380.11474609375 78.36724090576172 383.5751037597656 74.84403228759766 385.5090026855469 72.79081726074219 C 383.5960693359375 70.80902862548828 380.2041015625 67.43978881835938 375.4087524414063 63.21645355224609 C 370.8008117675781 59.15809631347656 365.8399658203125 55.13935089111328 360.6640625 51.27179718017578 C 354.189697265625 46.43405151367188 347.3607482910156 41.82225036621094 340.3668518066406 37.56439971923828 C 322.564453125 26.72634887695313 303.603759765625 18.09135437011719 284.0115051269531 11.89924621582031 C 272.3814086914063 8.223556518554688 260.3961791992188 5.378952026367188 248.3887481689453 3.444442749023438 C 235.1793518066406 1.316299438476563 221.6150970458984 0.23724365234375 208.0728454589844 0.23724365234375 M 208.0728454589844 -2.76275634765625 C 322.9883422851563 -2.76275634765625 389.5942993164063 72.76654815673828 389.5942993164063 72.76654815673828 C 389.5942993164063 72.76654815673828 322.9883422851563 150.1442565917969 208.0728454589844 150.1442565917969 C 114.6466064453125 150.1442565917969 4.61004638671875 95.81185150146484 4.61004638671875 95.81185150146484 C 4.61004638671875 95.81185150146484 0 79.59279632568359 0 72.76654815673828 C 0 65.17375183105469 4.61004638671875 51.56964874267578 4.61004638671875 51.56964874267578 C 4.61004638671875 51.56964874267578 117.059814453125 -2.76275634765625 208.0728454589844 -2.76275634765625 Z" stroke="none" fill="#5e35b1"/></g><path d="M208.288-2.763C323.2-2.763,389.81,72.767,389.81,72.767L2.027,72.873l2.8-21.3S117.275-2.763,208.288-2.763Z" transform="translate(180.941 33.57)" fill="#673ab7" opacity="0.52"/><g transform="translate(378.634 68.625)" fill="#85e9d5"><path d="M 37.8729133605957 73.24583435058594 C 33.09650039672852 73.24583435058594 28.46429061889648 72.31092834472656 24.10494804382324 70.46707916259766 C 19.89306640625 68.68560791015625 16.10987854003906 66.13473510742188 12.86047840118408 62.88534927368164 C 9.611089706420898 59.63594818115234 7.060219287872314 55.85276031494141 5.278748512268066 51.64087677001953 C 3.434901714324951 47.28153610229492 2.499995708465576 42.64932632446289 2.499995708465576 37.8729133605957 C 2.499995708465576 33.09650039672852 3.434901714324951 28.46429061889648 5.278748512268066 24.10494804382324 C 7.060219287872314 19.89306640625 9.611089706420898 16.10987854003906 12.86047840118408 12.86047840118408 C 16.10987854003906 9.611089706420898 19.89306640625 7.060219287872314 24.10494804382324 5.278748512268066 C 28.46429061889648 3.434901714324951 33.09650039672852 2.499995708465576 37.8729133605957 2.499995708465576 C 42.64932632446289 2.499995708465576 47.28153610229492 3.434901714324951 51.64087677001953 5.278748512268066 C 55.85276031494141 7.060219287872314 59.63594818115234 9.611089706420898 62.88534927368164 12.86047840118408 C 66.13473510742188 16.10987854003906 68.68560791015625 19.89306640625 70.46707916259766 24.10494804382324 C 72.31092834472656 28.46429061889648 73.24583435058594 33.09650039672852 73.24583435058594 37.8729133605957 C 73.24583435058594 42.64932632446289 72.31092834472656 47.28153610229492 70.46707916259766 51.64087677001953 C 68.68560791015625 55.85276031494141 66.13473510742188 59.63594818115234 62.88534927368164 62.88534927368164 C 59.63594818115234 66.13473510742188 55.85276031494141 68.68560791015625 51.64087677001953 70.46707916259766 C 47.28153610229492 72.31092834472656 42.64932632446289 73.24583435058594 37.8729133605957 73.24583435058594 Z" stroke="none"/><path d="M 37.8729133605957 5 C 33.43289947509766 5 29.12834167480469 5.868453979492188 25.07882690429688 7.581253051757813 C 21.16494369506836 9.236701965332031 17.64885711669922 11.60764312744141 14.62825775146484 14.62825775146484 C 11.60764312744141 17.64885711669922 9.236701965332031 21.16494369506836 7.581253051757813 25.07882690429688 C 5.868453979492188 29.12834167480469 5 33.43289947509766 5 37.8729133605957 C 5 42.31292724609375 5.868453979492188 46.61748504638672 7.581253051757813 50.66699981689453 C 9.236701965332031 54.58088684082031 11.60764312744141 58.09696960449219 14.62825775146484 61.11756896972656 C 17.64885711669922 64.13818359375 21.16494369506836 66.50912475585938 25.07882690429688 68.16457366943359 C 29.12834167480469 69.87737274169922 33.43289947509766 70.74582672119141 37.8729133605957 70.74582672119141 C 42.31292724609375 70.74582672119141 46.61748504638672 69.87737274169922 50.66699981689453 68.16457366943359 C 54.58088684082031 66.50912475585938 58.09696960449219 64.13818359375 61.11756896972656 61.11756896972656 C 64.13818359375 58.09696960449219 66.50912475585938 54.58088684082031 68.16457366943359 50.66699981689453 C 69.87737274169922 46.61748504638672 70.74582672119141 42.31292724609375 70.74582672119141 37.8729133605957 C 70.74582672119141 33.43289947509766 69.87737274169922 29.12834167480469 68.16457366943359 25.07882690429688 C 66.50912475585938 21.16494369506836 64.13818359375 17.64885711669922 61.11756896972656 14.62825775146484 C 58.09696960449219 11.60764312744141 54.58088684082031 9.236701965332031 50.66699981689453 7.581253051757813 C 46.61748504638672 5.868453979492188 42.31292724609375 5 37.8729133605957 5 M 37.8729133605957 0 C 58.78954315185547 0 75.74582672119141 16.95628356933594 75.74582672119141 37.8729133605957 C 75.74582672119141 58.78954315185547 58.78954315185547 75.74582672119141 37.8729133605957 75.74582672119141 C 16.95628356933594 75.74582672119141 0 58.78954315185547 0 37.8729133605957 C 0 16.95628356933594 16.95628356933594 0 37.8729133605957 0 Z" stroke="none" fill="#5e35b1"/></g><line y2="42.008" transform="translate(354.87 85.494)" fill="none" stroke="#8a65c2" stroke-linecap="round" stroke-width="5"/><line y2="42.008" transform="translate(354.87 85.494)" fill="none" stroke="#5e35b1" stroke-linecap="round" stroke-width="5"/><line y2="42.008" transform="translate(311.969 85.494)" fill="none" stroke="#5e35b1" stroke-linecap="round" stroke-width="5"/><line y2="42.008" transform="translate(333.42 85.494)" fill="none" stroke="#8a65c2" stroke-linecap="round" stroke-width="5"/><line y2="42.008" transform="translate(333.42 85.494)" fill="none" stroke="#5e35b1" stroke-linecap="round" stroke-width="5"/><line y2="42.008" transform="translate(290.518 85.494)" fill="none" stroke="#5e35b1" stroke-linecap="round" stroke-width="5"/><path d="M6.256,0A6.256,6.256,0,1,1,0,6.256,6.256,6.256,0,0,1,6.256,0Z" transform="translate(422.351 118.449)" fill="#fff"/></g><line x1="536.267" transform="translate(423.389 759.124)" fill="none" stroke="#fff" stroke-linecap="round" stroke-width="5"/><line x1="536.267" transform="translate(446.181 873.528)" fill="none" stroke="#fff" stroke-linecap="round" stroke-width="5"/><line x1="536.267" transform="translate(334.458 844.927)" fill="none" stroke="#fff" stroke-linecap="round" stroke-width="5"/><line x1="536.267" transform="translate(271 816.326)" fill="none" stroke="#fff" stroke-linecap="round" stroke-width="5"/><line x1="536.267" transform="translate(271 787.725)" fill="none" stroke="#fff" stroke-linecap="round" stroke-width="5"/></g></svg>