<svg xmlns="http://www.w3.org/2000/svg" width="949" height="463" viewBox="0 0 949 463"><path d="M56.009,368.335a48.008,48.008,0,0,1-16.927-94.508C39.027,272.892,39,271.948,39,271a48,48,0,0,1,48-48c.6,0,1.2.011,1.791.033a48.021,48.021,0,0,1,68.5-55.552,95.9,95.9,0,0,1,18.22-31.426A48.04,48.04,0,0,1,223,81q2.264,0,4.476.206A95.925,95.925,0,0,1,302.7,39.094a48.013,48.013,0,0,1,78.866-18.408,96.346,96.346,0,0,1,70.819,7.168A96.01,96.01,0,0,1,598.3,40.45a48.025,48.025,0,0,1,68.292,18.4,48.009,48.009,0,0,1,77.6,28.361,96.485,96.485,0,0,1,22.861,26.617,48.086,48.086,0,0,1,46.564,17.358,48.013,48.013,0,0,1,53.905,73.048,48.07,48.07,0,0,1,31.962,57.751,96.008,96.008,0,1,1-142.209,91.42,95.7,95.7,0,0,1-55.966-26.349A96.04,96.04,0,0,1,561.03,361.714a96.094,96.094,0,0,1-107.822,21.125,96.055,96.055,0,0,1-140.561-49.321A96.066,96.066,0,0,1,247.422,377.6a96,96,0,0,1-191.413-9.266ZM339.1,229.353l.262-.233-.138-.141Z" fill="#5a67a1"/></svg>